<?xml version="1.0" encoding="utf-8"?>
<!-- Generator: Adobe Illustrator 23.0.0, SVG Export Plug-In . SVG Version: 6.00 Build 0)  -->
<svg version="1.1" id="Layer_1" xmlns="http://www.w3.org/2000/svg" xmlns:xlink="http://www.w3.org/1999/xlink" x="0px" y="0px"
	 viewBox="0 0 8.2 8.2" style="enable-background:new 0 0 8.2 8.2;" xml:space="preserve">
<style type="text/css">
	.st0{fill:#949392;}
</style>
<g>
	<path class="st0" d="M3.8,6.1L2.7,7.3c-0.5,0.5-1.3,0.5-1.7,0C0.7,7,0.6,6.7,0.6,6.4s0.1-0.6,0.4-0.9l1.7-1.7
		c0.5-0.5,1.3-0.5,1.7,0c0.1,0.1,0.3,0.1,0.4,0c0.1-0.1,0.1-0.3,0-0.4C4.5,3.1,4,2.9,3.5,2.9c-0.5,0-0.9,0.2-1.3,0.5L0.5,5.1
		C0.2,5.5,0,5.9,0,6.4c0,0.5,0.2,0.9,0.5,1.3s0.8,0.5,1.3,0.5S2.8,8,3.1,7.7l1.1-1.1c0.1-0.1,0.1-0.3,0-0.4C4.1,6,3.9,6,3.8,6.1z"/>
	<path class="st0" d="M7.7,0.5C7.4,0.2,6.9,0,6.4,0S5.5,0.2,5.1,0.5L4.1,1.6C3.9,1.7,3.9,1.9,4.1,2c0.1,0.1,0.3,0.1,0.4,0l1.1-1.1
		c0.2-0.2,0.5-0.4,0.9-0.4S7,0.7,7.3,0.9c0.2,0.2,0.4,0.5,0.4,0.9c0,0.3-0.1,0.6-0.4,0.9L5.5,4.4c-0.5,0.5-1.3,0.5-1.7,0
		c-0.1-0.1-0.3-0.1-0.4,0C3.3,4.5,3.3,4.5,3.3,4.6c0,0.1,0,0.2,0.1,0.2c0.3,0.3,0.8,0.5,1.3,0.5c0.5,0,0.9-0.2,1.3-0.5l1.7-1.7
		C8,2.8,8.2,2.3,8.2,1.8S8,0.9,7.7,0.5z"/>
</g>
</svg>
