<?xml version="1.0" encoding="UTF-8"?>
<svg width="177px" height="32px" viewBox="0 0 177 32" version="1.1" xmlns="http://www.w3.org/2000/svg" xmlns:xlink="http://www.w3.org/1999/xlink">
    <!-- Generator: Sketch 50.2 (55047) - http://www.bohemiancoding.com/sketch -->
    <title>logo</title>
    <desc>Created with Sketch.</desc>
    <defs>
        <linearGradient x1="0%" y1="27.4578243%" x2="128.937514%" y2="27.4578243%" id="linearGradient-1">
            <stop stop-color="#1F066C" offset="0%"></stop>
            <stop stop-color="#01FFC6" offset="100%"></stop>
        </linearGradient>
    </defs>
    <g id="Phase-2---web" stroke="none" stroke-width="1" fill="none" fill-rule="evenodd">
        <g id="00-home-mobile" transform="translate(-74.000000, -16.000000)">
            <g id="Header">
                <g id="logo" transform="translate(74.000000, 16.000000)">
                    <g id="Group">
                        <path d="M52.4728194,11.3322466 L52.4728194,10.4140351 C52.4728194,10.1023209 52.5786009,9.84728587 52.790167,9.64892231 C53.0017331,9.45055874 53.2485565,9.35137845 53.5306446,9.35137845 L58.3120145,9.35137845 C58.6223114,9.35137845 58.8761869,9.45055874 59.0736486,9.64892231 C59.2711103,9.84728587 59.3698396,10.1023209 59.3698396,10.4140351 L59.3698396,30.5162907 C59.3698396,30.7996672 59.2711103,31.047618 59.0736486,31.2601504 C58.8761869,31.4726828 58.6223114,31.5789474 58.3120145,31.5789474 L53.5306446,31.5789474 C53.2485565,31.5789474 53.0017331,31.4726828 52.790167,31.2601504 C52.5786009,31.047618 52.4728194,30.7996672 52.4728194,30.5162907 L52.4728194,29.4194658 C50.9260737,31.0596296 49.5300301,31.8796992 46.6374066,31.8796992 C43.7185037,31.8796992 41.4772368,31.0446613 39.9135388,29.3745604 C38.3498408,27.7044595 37.4985069,25.3278131 37.3595115,22.2445499 C37.3363456,21.8734164 37.3247628,21.2310795 37.3247628,20.3175201 C37.3247628,19.4039606 37.3363456,18.7616237 37.3595115,18.3904902 C37.4985069,15.3643245 38.3730063,13.0019522 39.9830361,11.3033026 C41.5930659,9.60465294 43.8111672,8.75534087 46.6374066,8.75534087 C49.463646,8.75534087 50.8354871,9.60465294 52.4455169,11.3033026 C52.4546414,11.3129293 52.4637422,11.3225773 52.4728194,11.3322466 Z M0.00469035694,21.4752326 L0.00469035694,10.4140351 C0.00469035694,10.1023209 0.110471817,9.84728587 0.322037912,9.64892231 C0.533604006,9.45055874 0.780427414,9.35137845 1.06251554,9.35137845 L5.97082439,9.35137845 C6.28112133,9.35137845 6.53499683,9.45055874 6.73245852,9.64892231 C6.92992021,9.84728587 7.02864957,10.1023209 7.02864957,10.4140351 L7.02864957,11.8592481 C7.70566108,11.0374562 8.58012115,10.3431941 9.65205603,9.7764411 C10.7239909,9.20968806 11.9369517,8.92631579 13.2909747,8.92631579 C16.393944,8.92631579 18.5236774,10.1448166 19.6802388,12.5818546 C20.3572503,11.5050239 21.3022313,10.6265698 22.5152103,9.94646617 C23.7281892,9.26636251 25.0257751,8.92631579 26.4080069,8.92631579 C28.7211296,8.92631579 30.6040396,9.71267384 32.0567934,11.2854135 C33.5095473,12.8581532 34.2359133,15.2030588 34.2359133,18.3202005 L34.2359133,30.5162907 C34.2359133,30.7996672 34.1371839,31.047618 33.9397222,31.2601504 C33.7422605,31.4726828 33.488385,31.5789474 33.1780881,31.5789474 L27.9735882,31.5789474 C27.6632913,31.5789474 27.4023637,31.4797671 27.1907976,31.2814035 C26.9792315,31.0830399 26.87345,30.8280049 26.87345,30.5162907 L26.87345,18.6177444 C26.87345,17.3142124 26.5984182,16.3578309 26.0483464,15.7485714 C25.4982745,15.1393119 24.7578043,14.8346867 23.8269135,14.8346867 C22.9524403,14.8346867 22.2401785,15.1393119 21.6901066,15.7485714 C21.1400348,16.3578309 20.865003,17.3142124 20.865003,18.6177444 L20.865003,21.4752326 C20.865003,21.9394593 20.4896938,22.3157895 20.0267264,22.3157895 L14.3408163,22.3157895 C13.8778489,22.3157895 13.5025397,21.9394593 13.5025397,21.4752326 L13.5025397,18.6177444 C13.5025397,17.3142124 13.2204558,16.3578309 12.6562795,15.7485714 C12.0921033,15.1393119 11.3586852,14.8346867 10.4560032,14.8346867 C9.58152998,14.8346867 8.86221604,15.1393119 8.29803979,15.7485714 C7.73386354,16.3578309 7.45177965,17.3000437 7.45177965,18.5752381 L7.45177965,21.4752326 C7.45177965,21.9394593 7.07647045,22.3157895 6.61350309,22.3157895 L0.842966917,22.3157895 C0.379999557,22.3157895 0.00469035694,21.9394593 0.00469035694,21.4752326 Z M47.9028571,26.4840156 C49.0680334,26.4840156 49.9347978,26.1200247 50.5031765,25.392032 C51.0715552,24.6640393 51.3983681,23.5435184 51.4836249,22.0304355 C51.5120438,21.7449482 51.526253,21.1739821 51.526253,20.3175201 C51.526253,19.4610581 51.5120438,18.890092 51.4836249,18.6046046 C51.3983681,17.1200705 51.0715552,16.0066866 50.5031765,15.2644195 C49.9347978,14.5221525 49.0680334,14.1510245 47.9028571,14.1510245 C46.7376808,14.1510245 45.8709163,14.5221525 45.3025376,15.2644195 C44.7341589,16.0066866 44.4073461,17.1200705 44.3220893,18.6046046 L44.2794611,20.3175201 L44.3220893,22.0304355 C44.4073461,23.5435184 44.7341589,24.6640393 45.3025376,25.392032 C45.8709163,26.1200247 46.7376808,26.4840156 47.9028571,26.4840156 Z M64.3204615,21.4752326 L64.3204615,10.4140351 C64.3204615,10.1023209 64.426243,9.84728587 64.637809,9.64892231 C64.8493751,9.45055874 65.0961985,9.35137845 65.3782867,9.35137845 L70.5827866,9.35137845 C70.8930835,9.35137845 71.146959,9.45055874 71.3444207,9.64892231 C71.5418824,9.84728587 71.6406118,10.1023209 71.6406118,10.4140351 L71.6406118,12.0292732 C72.4022497,11.0941307 73.3824912,10.3431941 74.5813658,9.7764411 C75.7802403,9.20968806 77.1553993,8.92631579 78.706884,8.92631579 C80.3147863,8.92631579 81.7463621,9.29469974 83.0016542,10.0314787 C84.2569464,10.7682577 85.24424,11.8592409 85.9635647,13.3044612 C86.6828895,14.7496814 87.0425464,16.4924209 87.0425464,18.5327318 L87.0425464,30.5162907 C87.0425464,30.7996672 86.9438171,31.047618 86.7463554,31.2601504 C86.5488937,31.4726828 86.2950182,31.5789474 85.9847212,31.5789474 L80.3570913,31.5789474 C80.0467943,31.5789474 79.7858667,31.4797671 79.5743006,31.2814035 C79.3627345,31.0830399 79.2569531,30.8280049 79.2569531,30.5162907 L79.2569531,18.7877694 C79.2569531,17.5125751 78.9537129,16.5349407 78.3472234,15.8548371 C77.7407339,15.1747334 76.8592218,14.8346867 75.7026605,14.8346867 C74.574308,14.8346867 73.6857437,15.1818177 73.036941,15.8760902 C72.3881383,16.5703627 72.0637418,17.5409127 72.0637418,18.7877694 L72.0637418,21.4752326 C72.0637418,21.9394593 71.6884326,22.3157895 71.2254653,22.3157895 L65.1587381,22.3157895 C64.6957707,22.3157895 64.3204615,21.9394593 64.3204615,21.4752326 Z M95.0397048,31.5789474 C94.7294079,31.5789474 94.4684803,31.4797671 94.2569142,31.2814035 C94.0453481,31.0830399 93.9395666,30.8280049 93.9395666,30.5162907 L93.9395666,15.1322306 L90.7660911,15.1322306 C90.4557941,15.1322306 90.1948665,15.0330503 89.9833004,14.8346867 C89.7717343,14.6363232 89.6659529,14.3812881 89.6659529,14.0695739 L89.6659529,10.4140351 C89.6659529,10.1023209 89.7717343,9.84728587 89.9833004,9.64892231 C90.1948665,9.45055874 90.4557941,9.35137845 90.7660911,9.35137845 L93.9395666,9.35137845 L93.9395666,8.07619048 C93.9395666,5.24242526 94.7576099,3.1879763 96.393721,1.91278195 C98.0298322,0.637587609 100.371129,0 103.41768,0 L106.760408,0 C107.070705,0 107.331632,0.0991802947 107.543198,0.29754386 C107.754765,0.495907425 107.860546,0.750942468 107.860546,1.06265664 L107.860546,4.71819549 C107.860546,5.02990966 107.754765,5.28494471 107.543198,5.48330827 C107.331632,5.68167184 107.070705,5.78085213 106.760408,5.78085213 L103.756184,5.78085213 C102.853502,5.78085213 102.211761,5.98629703 101.830942,6.39719298 C101.450124,6.80808894 101.259717,7.43859224 101.259717,8.2887218 L101.259717,9.35137845 L106.337278,9.35137845 C106.647575,9.35137845 106.908502,9.45055874 107.120068,9.64892231 C107.331634,9.84728587 107.437416,10.1023209 107.437416,10.4140351 L107.437416,14.0695739 C107.437416,14.3812881 107.331634,14.6363232 107.120068,14.8346867 C106.908502,15.0330503 106.647575,15.1322306 106.337278,15.1322306 L101.259717,15.1322306 L101.259717,30.5162907 C101.259717,30.7996672 101.160988,31.047618 100.963526,31.2601504 C100.766064,31.4726828 100.512189,31.5789474 100.201892,31.5789474 L95.0397048,31.5789474 Z M110.018509,21.4752326 L110.018509,10.4565414 C110.018509,10.1448272 110.117239,9.88270783 110.3147,9.67017544 C110.512162,9.45764305 110.766038,9.35137845 111.076335,9.35137845 L116.238521,9.35137845 C116.548818,9.35137845 116.809746,9.45764305 117.021312,9.67017544 C117.232878,9.88270783 117.33866,10.1448272 117.33866,10.4565414 L117.33866,12.0717794 C118.128506,11.1933122 119.052331,10.5203031 120.110162,10.0527318 C121.167992,9.58516057 122.345692,9.35137845 123.643298,9.35137845 L125.547383,9.35137845 C125.85768,9.35137845 126.111556,9.45055874 126.309017,9.64892231 C126.506479,9.84728587 126.605208,10.1023209 126.605208,10.4140351 L126.605208,15.047218 C126.605208,15.3305946 126.506479,15.5785453 126.309017,15.7910777 C126.111556,16.0036101 125.85768,16.1098747 125.547383,16.1098747 L121.273769,16.1098747 C120.145417,16.1098747 119.278009,16.4215842 118.671519,17.0450125 C118.06503,17.6684409 117.76179,18.5468949 117.76179,19.680401 L117.76179,21.4752326 C117.76179,21.9394593 117.386481,22.3157895 116.923513,22.3157895 L110.856786,22.3157895 C110.393819,22.3157895 110.018509,21.9394593 110.018509,21.4752326 Z M139.550593,31.7954887 C136.109118,31.7954887 133.401113,30.8674445 131.426496,29.0113283 C129.451879,27.1552121 128.436377,24.4560912 128.37996,20.9138847 L128.37996,19.5961905 C128.492795,16.2240099 129.536505,13.5886478 131.511122,11.6900251 C133.485739,9.79140237 136.151432,8.84210526 139.50828,8.84210526 C141.934238,8.84210526 143.986399,9.33092243 145.664823,10.3085714 C147.343247,11.2862204 148.598521,12.6322387 149.430681,14.3466667 C150.262841,16.0610946 150.678914,18.009279 150.678914,20.1912782 L150.678914,21.2539348 C150.678914,21.565649 150.573133,21.8277684 150.361567,22.0403008 C150.150001,22.2528331 149.889073,22.3590977 149.578776,22.3590977 L136.165553,22.3590977 L136.165553,22.6141353 C136.193762,23.8893297 136.48995,24.9165542 137.054126,25.6958396 C137.618302,26.475125 138.422241,26.8647619 139.465967,26.8647619 C140.142979,26.8647619 140.68599,26.7301601 141.095018,26.4609524 C141.504046,26.1917447 141.891911,25.8446137 142.258626,25.4195489 C142.512505,25.1361724 142.717016,24.9590647 142.872165,24.8882206 C143.027313,24.8173764 143.274136,24.7819549 143.612642,24.7819549 L149.155646,24.7819549 C149.409525,24.7819549 149.62814,24.8598823 149.811498,25.0157393 C149.994855,25.1715964 150.086532,25.3628727 150.086532,25.5895739 C150.086532,26.3263529 149.670459,27.1906383 148.838299,28.1824561 C148.006139,29.174274 146.793178,30.0243908 145.19938,30.7328321 C143.605582,31.4412734 141.722672,31.7954887 139.550593,31.7954887 Z M142.893321,18.0234586 L142.893321,17.9384461 C142.893321,16.5782388 142.597133,15.5226771 142.004748,14.7717293 C141.412363,14.0207815 140.580215,13.6453133 139.50828,13.6453133 C138.436346,13.6453133 137.61125,14.0207815 137.03297,14.7717293 C136.454689,15.5226771 136.165553,16.5782388 136.165553,17.9384461 L136.165553,18.0234586 L142.893321,18.0234586 Z M163.127336,31.8546207 C160.391201,31.8546207 158.240405,30.9903732 156.674885,29.2618521 C155.109364,27.5333311 154.270202,25.0681003 154.157371,21.8660859 L154.11506,20.3784318 L154.157371,18.8482733 C154.270202,15.7596046 155.116416,13.3297938 156.696041,11.5587681 C158.275665,9.78774247 160.419408,8.90224292 163.127336,8.90224292 C165.666018,8.90224292 167.711036,9.7239865 169.262453,11.3674983 L169.262453,1.2731364 C169.262453,0.961435883 169.36823,0.706412013 169.579787,0.508057139 C169.791344,0.309702265 170.038156,0.210526316 170.320232,0.210526316 L175.778371,0.210526316 C176.088654,0.210526316 176.34957,0.309702265 176.561127,0.508057139 C176.772684,0.706412013 176.878461,0.961435883 176.878461,1.2731364 L176.878461,30.3669666 C176.878461,30.6786671 176.772684,30.933691 176.561127,31.1320459 C176.34957,31.3304007 176.088654,31.4295767 175.778371,31.4295767 L170.743343,31.4295767 C170.461268,31.4295767 170.214455,31.3233167 170.002898,31.1107937 C169.791341,30.8982706 169.685565,30.6503307 169.685565,30.3669666 L169.685565,29.0493301 C168.162355,30.9195332 165.976301,31.8546207 163.127336,31.8546207 Z M165.581383,25.9465087 C166.794309,25.9465087 167.696937,25.5568889 168.289297,24.7776376 C168.881656,23.9983863 169.206038,23.0137108 169.262453,21.8235815 C169.318868,21.030162 169.347075,20.4917783 169.347075,20.2084142 C169.347075,19.8967137 169.318868,19.372498 169.262453,18.6357513 C169.206038,17.5306313 168.874604,16.6167957 168.268141,15.8942173 C167.661678,15.1716388 166.766101,14.810355 165.581383,14.810355 C164.312042,14.810355 163.402361,15.1858068 162.852313,15.9367217 C162.302266,16.6876366 161.984935,17.728984 161.900312,19.0607953 L161.858001,20.3784318 L161.900312,21.6960683 C161.984935,23.0278796 162.302266,24.0692271 162.852313,24.820142 C163.402361,25.5710569 164.312042,25.9465087 165.581383,25.9465087 Z" id="Combined-Shape" fill="url(#linearGradient-1)"></path>
                        <path d="M110.859985,24.8421053 L116.916533,24.8421053 C117.3795,24.8421053 117.75481,25.2184354 117.75481,25.6826621 L117.75481,30.7383905 C117.75481,31.2026172 117.3795,31.5789474 116.916533,31.5789474 L110.859985,31.5789474 C110.397017,31.5789474 110.021708,31.2026172 110.021708,30.7383905 L110.021708,25.6826621 C110.021708,25.2184354 110.397017,24.8421053 110.859985,24.8421053 Z" id="dot-4" fill="#118299"></path>
                        <path d="M65.1571429,24.8421053 L71.226265,24.8421053 C71.6892323,24.8421053 72.0645415,25.2184354 72.0645415,25.6826621 L72.0645415,30.7383905 C72.0645415,31.2026172 71.6892323,31.5789474 71.226265,31.5789474 L65.1571429,31.5789474 C64.6941755,31.5789474 64.3188663,31.2026172 64.3188663,30.7383905 L64.3188663,25.6826621 C64.3188663,25.2184354 64.6941755,24.8421053 65.1571429,24.8421053 Z" id="dot-3" fill="#165087"></path>
                        <path d="M14.3324309,24.8421053 L20.0327117,24.8421053 C20.4956791,24.8421053 20.8709883,25.2184354 20.8709883,25.6826621 L20.8709883,30.7383905 C20.8709883,31.2026172 20.4956791,31.5789474 20.0327117,31.5789474 L14.3324309,31.5789474 C13.8694636,31.5789474 13.4941544,31.2026172 13.4941544,30.7383905 L13.4941544,25.6826621 C13.4941544,25.2184354 13.8694636,24.8421053 14.3324309,24.8421053 Z" id="dot-2" fill="#1C1872"></path>
                        <path d="M0.844564146,24.8421053 L6.61609846,24.8421053 C7.07906582,24.8421053 7.45437502,25.2184354 7.45437502,25.6826621 L7.45437502,30.7383905 C7.45437502,31.2026172 7.07906582,31.5789474 6.61609846,31.5789474 L0.844564146,31.5789474 C0.381596786,31.5789474 0.00628758585,31.2026172 0.00628758585,30.7383905 L0.00628758585,25.6826621 C0.00628758585,25.2184354 0.381596786,24.8421053 0.844564146,24.8421053 Z" id="dot-1" fill="#1E0A6D"></path>
                    </g>
                </g>
            </g>
        </g>
    </g>
</svg>