<?xml version="1.0" encoding="utf-8"?>
<!-- Generator: Adobe Illustrator 23.0.0, SVG Export Plug-In . SVG Version: 6.00 Build 0)  -->
<svg version="1.1" id="Layer_1" xmlns="http://www.w3.org/2000/svg" xmlns:xlink="http://www.w3.org/1999/xlink" x="0px" y="0px"
	 viewBox="0 0 437.2 32.2" style="enable-background:new 0 0 437.2 32.2;" xml:space="preserve">
<style type="text/css">
	.st0{fill:url(#SVGID_1_);}
	.st1{fill:url(#SVGID_2_);}
	.st2{fill:url(#SVGID_3_);}
	.st3{fill:url(#SVGID_4_);}
	.st4{fill:url(#SVGID_5_);}
	.st5{fill:url(#SVGID_6_);}
	.st6{fill:url(#SVGID_7_);}
	.st7{fill:url(#SVGID_8_);}
	.st8{fill:url(#SVGID_9_);}
	.st9{fill:url(#SVGID_10_);}
	.st10{fill-rule:evenodd;clip-rule:evenodd;fill:url(#Combined-Shape_2_);}
	.st11{fill-rule:evenodd;clip-rule:evenodd;fill:#118299;}
	.st12{fill-rule:evenodd;clip-rule:evenodd;fill:#165087;}
	.st13{fill-rule:evenodd;clip-rule:evenodd;fill:#1C1872;}
	.st14{fill-rule:evenodd;clip-rule:evenodd;fill:#1E0A6D;}
</style>
<g>
	<linearGradient id="SVGID_1_" gradientUnits="userSpaceOnUse" x1="446.2534" y1="14.7371" x2="141.6205" y2="22.8202">
		<stop  offset="0" style="stop-color:#1F066C"/>
		<stop  offset="1" style="stop-color:#01FFC6"/>
	</linearGradient>
	<path class="st0" d="M214.4,21.5c0,6.8,2.3,8.9,2.3,8.9l-5.4,1.7c0,0-1.5-1.5-2.1-4.3c-0.9,2.6-2.8,4.2-5.9,4.2
		c-5.6,0-8.2-4.2-8.2-10.6c0-6.5,4.4-11.4,10.7-11.4c3.5,0,8.4,1.2,8.5,1.2V21.5z M207.6,20.3v-5c-0.4-0.2-1.2-0.3-1.8-0.3
		c-2.8,0-3.5,2.5-3.5,6c0,3.2,0.1,6.1,2.2,6.1C206.2,27.1,207.6,23.8,207.6,20.3z"/>
	<linearGradient id="SVGID_2_" gradientUnits="userSpaceOnUse" x1="446.2704" y1="15.376" x2="141.6375" y2="23.4591">
		<stop  offset="0" style="stop-color:#1F066C"/>
		<stop  offset="1" style="stop-color:#01FFC6"/>
	</linearGradient>
	<path class="st1" d="M248.1,10.3c0.2,0.9,0.5,3.2,0.5,5.4c0,11.8-3.4,16.3-11.2,16.3c-2.3,0-4-1-5.1-2.8c-1.5,2.2-3.5,2.8-6.3,2.8
		c-4.8,0-6.5-3-6.5-7.6V10.3h6.8v13.9c0,1.6,0.6,3,1.7,3c1.9,0,2.7-2.5,2.7-8.5v-8.5h6.8c0,0-0.1,11.8-0.1,13.9c0,1.6,0.6,3,1.7,3
		c2.5,0,2.8-5.3,2.8-11.2c0-2.9-0.3-4.7-0.5-5.8H248.1z"/>
	<linearGradient id="SVGID_3_" gradientUnits="userSpaceOnUse" x1="446.2897" y1="16.104" x2="141.6568" y2="24.1871">
		<stop  offset="0" style="stop-color:#1F066C"/>
		<stop  offset="1" style="stop-color:#01FFC6"/>
	</linearGradient>
	<path class="st2" d="M262.2,9.9c5.3,0,7.5,2.8,7.5,6.5c0,4.1-4.2,7.4-11,7.9c0.4,1.7,1.4,2.9,3.5,2.9c2.5,0,6.1-1.4,6.1-1.4
		l1.3,4.4c0,0-3.9,1.9-8.4,1.9c-7,0-9.7-4.2-9.7-10.5C251.3,14,256.1,9.9,262.2,9.9z M258.3,20c3.4-0.1,4.7-2.1,4.7-3.5
		c0-1.1-0.7-1.8-1.6-1.8C259.1,14.7,258.4,17.5,258.3,20z"/>
	<linearGradient id="SVGID_4_" gradientUnits="userSpaceOnUse" x1="446.3036" y1="16.6276" x2="141.6707" y2="24.7108">
		<stop  offset="0" style="stop-color:#1F066C"/>
		<stop  offset="1" style="stop-color:#01FFC6"/>
	</linearGradient>
	<path class="st3" d="M287.4,11.7l-2.1,4.8c-0.9-0.5-2.9-1.5-4.7-1.5c-0.9,0-1.6,0.4-1.6,1.2c0,0.9,1.3,1.8,3.2,2.6
		c3.4,1.4,5.3,3.2,5.3,6.5c0,3.7-2.6,6.9-7.7,6.9c-3.9,0-7.1-1.3-8.5-2l2.2-4.9c0.6,0.3,3.1,1.8,5,1.8c1.2,0,2.1-0.5,2.1-1.4
		c0-1.1-1.1-2-2.5-2.5c-4.3-1.7-6-3.7-6-6.9c0-3.6,2.8-6.4,7.6-6.4C284,9.9,287.4,11.7,287.4,11.7z"/>
	<linearGradient id="SVGID_5_" gradientUnits="userSpaceOnUse" x1="446.3171" y1="17.1378" x2="141.6842" y2="25.221">
		<stop  offset="0" style="stop-color:#1F066C"/>
		<stop  offset="1" style="stop-color:#01FFC6"/>
	</linearGradient>
	<path class="st4" d="M309.7,20.8c0,6.5-3.3,11.4-10.1,11.4c-6.8,0-9.8-4.1-9.8-10.9c0-6.5,3.3-11.4,10.1-11.4S309.7,14,309.7,20.8z
		 M297.1,20.8c0,3.5,0.6,6.3,3,6.3c2.1,0,2.6-2.6,2.6-5.9c0-3.5-0.6-6.3-3-6.3C297.5,15,297.1,17.5,297.1,20.8z"/>
	<linearGradient id="SVGID_6_" gradientUnits="userSpaceOnUse" x1="446.3343" y1="17.7866" x2="141.7014" y2="25.8698">
		<stop  offset="0" style="stop-color:#1F066C"/>
		<stop  offset="1" style="stop-color:#01FFC6"/>
	</linearGradient>
	<path class="st5" d="M336,31.8V18.4c0-2-0.2-3.3-1.4-3.3c-1.4,0-2.8,2.1-2.8,5.4v11.3H325V18.4c0-2-0.2-3.3-1.4-3.3
		c-1.4,0-2.8,2.2-2.8,5.6v11.1H314V20.6c0-6.8-2.4-8.9-2.4-8.9l5.4-1.7c0,0,1.3,1.4,2,3.9c1.4-2.6,3.9-3.9,6.9-3.9c2.5,0,4,1,5,2.9
		c1.5-2.1,3.6-2.9,6.1-2.9c4.4,0,5.8,2.9,5.8,7.4v14.3H336z"/>
	<linearGradient id="SVGID_7_" gradientUnits="userSpaceOnUse" x1="446.2194" y1="13.4536" x2="141.5865" y2="21.5367">
		<stop  offset="0" style="stop-color:#1F066C"/>
		<stop  offset="1" style="stop-color:#01FFC6"/>
	</linearGradient>
	<path class="st6" d="M354.4,3.8c0,2.2-1.3,3.9-3.8,3.9c-2.4,0-3.7-1.7-3.7-3.7c0-2.3,1.3-4,3.9-4C353.1,0,354.4,1.6,354.4,3.8z
		 M347.3,27.1V10.3h6.8v14.9c0,1.3,0.4,1.7,1.2,1.7c0.4,0,1-0.1,1.1-0.2l0.6,4.2c-0.1,0.1-1.9,1-4.2,1
		C349.5,31.9,347.3,30.1,347.3,27.1z"/>
	<linearGradient id="SVGID_8_" gradientUnits="userSpaceOnUse" x1="446.3649" y1="18.938" x2="141.732" y2="27.0211">
		<stop  offset="0" style="stop-color:#1F066C"/>
		<stop  offset="1" style="stop-color:#01FFC6"/>
	</linearGradient>
	<path class="st7" d="M371.7,16.4c-0.7-0.8-1.3-1.5-2.5-1.5c-1.4,0-3.6,0.6-3.6,6c0,5.4,2.4,6.2,4.2,6.2c1.4,0,3.5-0.8,3.6-0.9
		l1.2,4.5c0,0-2.6,1.5-6.4,1.5c-7,0-9.9-4.2-9.9-10.5c0-7.7,4.4-11.8,10.4-11.8c2.8,0,4.9,1.2,6.2,3L371.7,16.4z"/>
	<linearGradient id="SVGID_9_" gradientUnits="userSpaceOnUse" x1="446.2871" y1="16.0075" x2="141.6542" y2="24.0906">
		<stop  offset="0" style="stop-color:#1F066C"/>
		<stop  offset="1" style="stop-color:#01FFC6"/>
	</linearGradient>
	<path class="st8" d="M405.1,9.9c-1.6-1.9-3-2.4-4.5-2.4c-3.7,0-5.3,3.7-5.3,9.7c0,5.8,1.4,9.8,5.9,9.8c2,0,4-0.6,5.6-1.2l1.5,4.8
		c-1.8,0.7-4.5,1.4-7.9,1.4c-8.8,0-12.6-5.2-12.6-14.4c0-8.8,4.2-15.2,12.9-15.2c4.6,0,6.8,1.7,8.4,3.5L405.1,9.9z"/>
	<linearGradient id="SVGID_10_" gradientUnits="userSpaceOnUse" x1="446.3011" y1="16.5351" x2="141.6682" y2="24.6182">
		<stop  offset="0" style="stop-color:#1F066C"/>
		<stop  offset="1" style="stop-color:#01FFC6"/>
	</linearGradient>
	<path class="st9" d="M426.4,31.8h-6L409.6,2.8h7.4l3.8,11.5c1.2,3.5,2,6.6,2.6,8.8c0.6-2.2,1.4-5.2,2.6-8.8L430,2.8h7.2L426.4,31.8
		z"/>
</g>
<g>
	
		<linearGradient id="Combined-Shape_2_" gradientUnits="userSpaceOnUse" x1="-207.8231" y1="371.6224" x2="-206.5337" y2="371.6224" gradientTransform="matrix(176.8738 0 0 -31.8797 36758.4492 11863.4473)">
		<stop  offset="0" style="stop-color:#1F066C"/>
		<stop  offset="1" style="stop-color:#01FFC6"/>
	</linearGradient>
	<path id="Combined-Shape_1_" class="st10" d="M52.5,11.6v-0.9c0-0.3,0.1-0.6,0.3-0.8c0.2-0.2,0.5-0.3,0.7-0.3h4.8
		c0.3,0,0.6,0.1,0.8,0.3c0.2,0.2,0.3,0.5,0.3,0.8v20.1c0,0.3-0.1,0.5-0.3,0.7c-0.2,0.2-0.5,0.3-0.8,0.3h-4.8c-0.3,0-0.5-0.1-0.7-0.3
		c-0.2-0.2-0.3-0.5-0.3-0.7v-1.1c-1.5,1.6-2.9,2.5-5.8,2.5c-2.9,0-5.2-0.8-6.7-2.5c-1.6-1.7-2.4-4-2.6-7.1c0-0.4,0-1,0-1.9
		s0-1.6,0-1.9c0.1-3,1-5.4,2.6-7.1s3.8-2.5,6.7-2.5C49.5,9.1,50.8,9.9,52.5,11.6C52.4,11.6,52.5,11.6,52.5,11.6z M0,21.8V10.7
		c0-0.3,0.1-0.6,0.3-0.8c0.2-0.2,0.5-0.3,0.7-0.3H6c0.3,0,0.6,0.1,0.8,0.3C6.9,10.1,7,10.4,7,10.7v1.4c0.7-0.8,1.6-1.5,2.6-2.1
		c1.1-0.6,2.3-0.9,3.6-0.9c3.1,0,5.2,1.2,6.4,3.7c0.7-1.1,1.6-2,2.8-2.6c1.2-0.7,2.5-1,3.9-1c2.3,0,4.2,0.8,5.6,2.4
		c1.5,1.6,2.2,3.9,2.2,7v12.2c0,0.3-0.1,0.5-0.3,0.7c-0.2,0.2-0.5,0.3-0.8,0.3H28c-0.3,0-0.6-0.1-0.8-0.3c-0.2-0.2-0.3-0.5-0.3-0.8
		V18.9c0-1.3-0.3-2.3-0.8-2.9c-0.6-0.6-1.3-0.9-2.2-0.9c-0.9,0-1.6,0.3-2.1,0.9c-0.6,0.6-0.8,1.6-0.8,2.9v2.9c0,0.5-0.4,0.8-0.8,0.8
		h-5.7c-0.5,0-0.8-0.4-0.8-0.8v-2.9c0-1.3-0.3-2.3-0.8-2.9c-0.6-0.6-1.3-0.9-2.2-0.9c-0.9,0-1.6,0.3-2.2,0.9
		c-0.6,0.6-0.8,1.6-0.8,2.8v2.9c0,0.5-0.4,0.8-0.8,0.8H0.8C0.4,22.6,0,22.2,0,21.8z M47.9,26.8c1.2,0,2-0.4,2.6-1.1s0.9-1.8,1-3.4
		c0-0.3,0-0.9,0-1.7s0-1.4,0-1.7c-0.1-1.5-0.4-2.6-1-3.3c-0.6-0.7-1.4-1.1-2.6-1.1s-2,0.4-2.6,1.1c-0.6,0.7-0.9,1.9-1,3.3l0,1.7
		l0,1.7c0.1,1.5,0.4,2.6,1,3.4S46.7,26.8,47.9,26.8z M64.3,21.8V10.7c0-0.3,0.1-0.6,0.3-0.8c0.2-0.2,0.5-0.3,0.7-0.3h5.2
		c0.3,0,0.6,0.1,0.8,0.3c0.2,0.2,0.3,0.5,0.3,0.8v1.6c0.8-0.9,1.7-1.7,2.9-2.3c1.2-0.6,2.6-0.9,4.1-0.9c1.6,0,3,0.4,4.3,1.1
		c1.3,0.7,2.2,1.8,3,3.3c0.7,1.4,1.1,3.2,1.1,5.2v12c0,0.3-0.1,0.5-0.3,0.7c-0.2,0.2-0.5,0.3-0.8,0.3h-5.6c-0.3,0-0.6-0.1-0.8-0.3
		c-0.2-0.2-0.3-0.5-0.3-0.8V19.1c0-1.3-0.3-2.3-0.9-2.9c-0.6-0.7-1.5-1-2.6-1c-1.1,0-2,0.3-2.7,1c-0.6,0.7-1,1.7-1,2.9v2.7
		c0,0.5-0.4,0.8-0.8,0.8h-6.1C64.7,22.6,64.3,22.2,64.3,21.8z M95,31.9c-0.3,0-0.6-0.1-0.8-0.3c-0.2-0.2-0.3-0.5-0.3-0.8V15.4h-3.2
		c-0.3,0-0.6-0.1-0.8-0.3c-0.2-0.2-0.3-0.5-0.3-0.8v-3.7c0-0.3,0.1-0.6,0.3-0.8c0.2-0.2,0.5-0.3,0.8-0.3h3.2V8.4
		c0-2.8,0.8-4.9,2.5-6.2c1.6-1.3,4-1.9,7-1.9h3.3c0.3,0,0.6,0.1,0.8,0.3c0.2,0.2,0.3,0.5,0.3,0.8V5c0,0.3-0.1,0.6-0.3,0.8
		c-0.2,0.2-0.5,0.3-0.8,0.3h-3c-0.9,0-1.5,0.2-1.9,0.6c-0.4,0.4-0.6,1-0.6,1.9v1.1h5.1c0.3,0,0.6,0.1,0.8,0.3
		c0.2,0.2,0.3,0.5,0.3,0.8v3.7c0,0.3-0.1,0.6-0.3,0.8c-0.2,0.2-0.5,0.3-0.8,0.3h-5.1v15.4c0,0.3-0.1,0.5-0.3,0.7
		c-0.2,0.2-0.5,0.3-0.8,0.3H95z M110,21.8v-11c0-0.3,0.1-0.6,0.3-0.8c0.2-0.2,0.5-0.3,0.8-0.3h5.2c0.3,0,0.6,0.1,0.8,0.3
		c0.2,0.2,0.3,0.5,0.3,0.8v1.6c0.8-0.9,1.7-1.6,2.8-2s2.2-0.7,3.5-0.7h1.9c0.3,0,0.6,0.1,0.8,0.3c0.2,0.2,0.3,0.5,0.3,0.8v4.6
		c0,0.3-0.1,0.5-0.3,0.7c-0.2,0.2-0.5,0.3-0.8,0.3h-4.3c-1.1,0-2,0.3-2.6,0.9c-0.6,0.6-0.9,1.5-0.9,2.6v1.8c0,0.5-0.4,0.8-0.8,0.8
		h-6.1C110.4,22.6,110,22.2,110,21.8z M139.5,32.1c-3.4,0-6.1-0.9-8.1-2.8c-2-1.9-3-4.6-3-8.1v-1.3c0.1-3.4,1.2-6,3.1-7.9
		c2-1.9,4.6-2.8,8-2.8c2.4,0,4.5,0.5,6.2,1.5s2.9,2.3,3.8,4c0.8,1.7,1.2,3.7,1.2,5.8v1.1c0,0.3-0.1,0.6-0.3,0.8
		c-0.2,0.2-0.5,0.3-0.8,0.3h-13.4v0.3c0,1.3,0.3,2.3,0.9,3.1s1.4,1.2,2.4,1.2c0.7,0,1.2-0.1,1.6-0.4c0.4-0.3,0.8-0.6,1.2-1
		c0.3-0.3,0.5-0.5,0.6-0.5c0.2-0.1,0.4-0.1,0.7-0.1h5.5c0.3,0,0.5,0.1,0.7,0.2c0.2,0.2,0.3,0.3,0.3,0.6c0,0.7-0.4,1.6-1.2,2.6
		c-0.8,1-2,1.8-3.6,2.6C143.6,31.7,141.7,32.1,139.5,32.1z M142.9,18.3L142.9,18.3c0-1.4-0.3-2.5-0.9-3.3c-0.6-0.8-1.4-1.1-2.5-1.1
		c-1.1,0-1.9,0.4-2.5,1.1c-0.6,0.8-0.9,1.8-0.9,3.2v0.1H142.9z M163.1,32.2c-2.7,0-4.9-0.9-6.5-2.6s-2.4-4.2-2.5-7.4l0-1.5l0-1.5
		c0.1-3.1,1-5.5,2.5-7.3c1.6-1.8,3.7-2.7,6.4-2.7c2.5,0,4.6,0.8,6.1,2.5V1.6c0-0.3,0.1-0.6,0.3-0.8s0.5-0.3,0.7-0.3h5.5
		c0.3,0,0.6,0.1,0.8,0.3s0.3,0.5,0.3,0.8v29.1c0,0.3-0.1,0.6-0.3,0.8s-0.5,0.3-0.8,0.3h-5c-0.3,0-0.5-0.1-0.7-0.3
		c-0.2-0.2-0.3-0.5-0.3-0.7v-1.3C168.2,31.2,166,32.2,163.1,32.2z M165.6,26.2c1.2,0,2.1-0.4,2.7-1.2s0.9-1.8,1-3
		c0.1-0.8,0.1-1.3,0.1-1.6c0-0.3,0-0.8-0.1-1.6c-0.1-1.1-0.4-2-1-2.7c-0.6-0.7-1.5-1.1-2.7-1.1c-1.3,0-2.2,0.4-2.7,1.1
		s-0.9,1.8-1,3.1l0,1.3l0,1.3c0.1,1.3,0.4,2.4,1,3.1C163.4,25.9,164.3,26.2,165.6,26.2z"/>
	<path id="dot-4_1_" class="st11" d="M110.9,25.4h6.1c0.5,0,0.8,0.4,0.8,0.8v5.1c0,0.5-0.4,0.8-0.8,0.8h-6.1c-0.5,0-0.8-0.4-0.8-0.8
		v-5.1C110,25.8,110.4,25.4,110.9,25.4z"/>
	<path id="dot-3_1_" class="st12" d="M65.2,25.4h6.1c0.5,0,0.8,0.4,0.8,0.8v5.1c0,0.5-0.4,0.8-0.8,0.8h-6.1c-0.5,0-0.8-0.4-0.8-0.8
		v-5.1C64.3,25.8,64.7,25.4,65.2,25.4z"/>
	<path id="dot-2_1_" class="st13" d="M14.3,25.4H20c0.5,0,0.8,0.4,0.8,0.8v5.1c0,0.5-0.4,0.8-0.8,0.8h-5.7c-0.5,0-0.8-0.4-0.8-0.8
		v-5.1C13.5,25.8,13.9,25.4,14.3,25.4z"/>
	<path id="dot-1_1_" class="st14" d="M0.8,25.4h5.8c0.5,0,0.8,0.4,0.8,0.8v5.1c0,0.5-0.4,0.8-0.8,0.8H0.8c-0.5,0-0.8-0.4-0.8-0.8
		v-5.1C0,25.8,0.4,25.4,0.8,25.4z"/>
</g>
</svg>
