<?xml version="1.0" encoding="utf-8"?>
<!-- Generator: Adobe Illustrator 23.0.0, SVG Export Plug-In . SVG Version: 6.00 Build 0)  -->
<svg version="1.1" id="Layer_1" xmlns="http://www.w3.org/2000/svg" xmlns:xlink="http://www.w3.org/1999/xlink" x="0px" y="0px"
	 viewBox="0 0 41.9 41.8" style="enable-background:new 0 0 41.9 41.8;" xml:space="preserve">
<style type="text/css">
	.st0{fill:#FFFFFF;}
</style>
<path class="st0" d="M26.9,25c-0.8,0-1.4,0.3-2,0.8l-7.1-4.2c0-0.2,0.1-0.5,0.1-0.7s0-0.5-0.1-0.7l7-4.1c0.5,0.5,1.2,0.8,2,0.8
	c1.7,0,3-1.3,3-3s-1.3-3-3-3s-3,1.3-3,3c0,0.2,0,0.5,0.1,0.7L17,18.7c-0.5-0.5-1.2-0.8-2-0.8c-1.7,0-3,1.3-3,3s1.3,3,3,3
	c0.8,0,1.5-0.3,2-0.8l7.1,4.2C24,27.5,24,27.7,24,27.9c0,1.6,1.3,2.9,2.9,2.9s2.9-1.3,2.9-2.9S28.5,25,26.9,25z"/>
</svg>
