<svg width="40" height="40" xmlns="http://www.w3.org/2000/svg">
 <g>
  <title>Layer 1</title>
  <g id="svg_24">
   <g transform="matrix(0.06451683679756659,0,0,0.06451683679756659,0,0) " id="svg_5">
    <g id="svg_6">
     <path fill="#ffffff" id="svg_7" d="m272.933594,291.688722c0,-6.995 -2.705,-13.403 -7.846,-18.556l-156.788,-156.782c-5.128,-5.141 -11.554,-7.852 -18.568,-7.852c-7.026,0 -13.452,2.717 -18.556,7.846l-16.83,16.83c-5.129,5.135 -7.84,11.549 -7.84,18.538c0,7.026 2.717,13.452 7.846,18.556l121.415,121.42l-121.427,121.433c-5.129,5.135 -7.84,11.555 -7.84,18.55c0,7.02 2.717,13.439 7.846,18.544l16.775,16.774c5.116,5.165 11.555,7.895 18.611,7.895c7.044,0 13.47,-2.723 18.556,-7.846l156.813,-156.8c5.128,-5.14 7.833,-11.549 7.833,-18.55z"/>
     <path fill="#ffffff" id="svg_8" d="m545.365594,427.136722l-323.02,0c-7.203,0 -13.611,2.583 -18.581,7.528c-4.896,4.92 -7.484,11.327 -7.484,18.531l0,21.536c0,7.252 2.607,13.672 7.491,18.543c4.915,4.927 11.34,7.528 18.574,7.528l323.02,0c7.239,0 13.659,-2.607 18.531,-7.497c4.927,-4.908 7.533,-11.334 7.533,-18.58l0,-21.537c0,-7.209 -2.589,-13.616 -7.54,-18.592c-4.913,-4.877 -11.321,-7.46 -18.524,-7.46z"/>
    </g>
   </g>
   <g transform="matrix(0.06451683679756659,0,0,0.06451683679756659,0,0) " id="svg_9"/>
   <g transform="matrix(0.06451683679756659,0,0,0.06451683679756659,0,0) " id="svg_10"/>
   <g transform="matrix(0.06451683679756659,0,0,0.06451683679756659,0,0) " id="svg_11"/>
   <g transform="matrix(0.06451683679756659,0,0,0.06451683679756659,0,0) " id="svg_12"/>
   <g transform="matrix(0.06451683679756659,0,0,0.06451683679756659,0,0) " id="svg_13"/>
   <g transform="matrix(0.06451683679756659,0,0,0.06451683679756659,0,0) " id="svg_14"/>
   <g transform="matrix(0.06451683679756659,0,0,0.06451683679756659,0,0) " id="svg_15"/>
   <g transform="matrix(0.06451683679756659,0,0,0.06451683679756659,0,0) " id="svg_16"/>
   <g transform="matrix(0.06451683679756659,0,0,0.06451683679756659,0,0) " id="svg_17"/>
   <g transform="matrix(0.06451683679756659,0,0,0.06451683679756659,0,0) " id="svg_18"/>
   <g transform="matrix(0.06451683679756659,0,0,0.06451683679756659,0,0) " id="svg_19"/>
   <g transform="matrix(0.06451683679756659,0,0,0.06451683679756659,0,0) " id="svg_20"/>
   <g transform="matrix(0.06451683679756659,0,0,0.06451683679756659,0,0) " id="svg_21"/>
   <g transform="matrix(0.06451683679756659,0,0,0.06451683679756659,0,0) " id="svg_22"/>
   <g transform="matrix(0.06451683679756659,0,0,0.06451683679756659,0,0) " id="svg_23"/>
  </g>
 </g>
</svg>
