<?xml version="1.0" encoding="utf-8"?>
<!-- Generator: Adobe Illustrator 23.0.0, SVG Export Plug-In . SVG Version: 6.00 Build 0)  -->
<svg version="1.1" id="Layer_1" xmlns="http://www.w3.org/2000/svg" xmlns:xlink="http://www.w3.org/1999/xlink" x="0px" y="0px"
	 viewBox="0 0 300 300" style="enable-background:new 0 0 300 300;" xml:space="preserve">
<style type="text/css">
	.st0{fill-rule:evenodd;clip-rule:evenodd;fill:url(#SVGID_1_);}
	.st1{filter:url(#Adobe_OpacityMaskFilter);}
	.st2{fill-rule:evenodd;clip-rule:evenodd;fill:#FFFFFF;}
	.st3{mask:url(#mask-3_1_);fill:url(#Combined-Shape_1_);}
	.st4{filter:url(#Adobe_OpacityMaskFilter_1_);}
	.st5{mask:url(#mask-3_2_);}
	.st6{fill-rule:evenodd;clip-rule:evenodd;fill:url(#Rectangle_1_);}
	.st7{fill-rule:evenodd;clip-rule:evenodd;fill:url(#SVGID_2_);}
	.st8{filter:url(#Adobe_OpacityMaskFilter_2_);}
	.st9{opacity:0.7824;mask:url(#mask-8_1_);fill:#D0D0D0;enable-background:new    ;}
	.st10{filter:url(#Adobe_OpacityMaskFilter_3_);}
	.st11{mask:url(#mask-3_3_);}
	.st12{fill:#FFFFFF;}
	.st13{filter:url(#Adobe_OpacityMaskFilter_4_);}
	.st14{mask:url(#mask-3_4_);fill:url(#SVGID_3_);}
</style>
<title>Mary</title>
<desc>Created with Sketch.</desc>
<g id="Page-1">
	<g id="Mary" transform="translate(150.000000, 150.000000) scale(-1, 1) translate(-150.000000, -150.000000) ">
		<g id="Mask">
			
				<linearGradient id="SVGID_1_" gradientUnits="userSpaceOnUse" x1="446.99" y1="568.9865" x2="446.99" y2="569.9865" gradientTransform="matrix(-300 0 0 -300 134247 170995.9219)">
				<stop  offset="5.166997e-04" style="stop-color:#FFFFFF"/>
				<stop  offset="1" style="stop-color:#F2F2F2"/>
			</linearGradient>
			<circle class="st0" cx="150" cy="150" r="150"/>
		</g>
		<defs>
			<filter id="Adobe_OpacityMaskFilter" filterUnits="userSpaceOnUse">
				<feColorMatrix  type="matrix" values="1 0 0 0 0  0 1 0 0 0  0 0 1 0 0  0 0 0 1 0"/>
			</filter>
		</defs>
		<mask maskUnits="userSpaceOnUse" id="mask-3_1_">
			<g class="st1">
				<circle id="path-2_1_" class="st2" cx="150" cy="150" r="150"/>
			</g>
		</mask>
		
			<linearGradient id="Combined-Shape_1_" gradientUnits="userSpaceOnUse" x1="445.6972" y1="569.7033" x2="445.6972" y2="568.7033" gradientTransform="matrix(183.1106 0 0 -228.4115 -81475.0078 130165.3594)">
			<stop  offset="0" style="stop-color:#130027"/>
			<stop  offset="1" style="stop-color:#130017"/>
		</linearGradient>
		<path id="Combined-Shape" class="st3" d="M222.5,159.5c8.1-26.9,13.1-73-21-104.5c-26.1-24.1-96.5-26.5-121,26
			c-4.1,8.8,1.5,22.5,12.5,22c4.3-0.2,7,13.5,9.5,22C99,159.5,67.8,160.1,52,186.5C32.5,219,56.5,267,114,267
			S204.5,219.4,222.5,159.5z"/>
		<defs>
			<filter id="Adobe_OpacityMaskFilter_1_" filterUnits="userSpaceOnUse">
				<feColorMatrix  type="matrix" values="1 0 0 0 0  0 1 0 0 0  0 0 1 0 0  0 0 0 1 0"/>
			</filter>
		</defs>
		<mask maskUnits="userSpaceOnUse" id="mask-3_2_">
			<g class="st4">
				<circle id="path-2_2_" class="st2" cx="150" cy="150" r="150"/>
			</g>
		</mask>
		<g id="Group-16" class="st5">
			<g transform="translate(47.000000, 89.000000)">
				
					<linearGradient id="Rectangle_1_" gradientUnits="userSpaceOnUse" x1="400.2136" y1="478.5126" x2="400.2136" y2="479.5126" gradientTransform="matrix(-206 0 0 -114 82547 54765.4336)">
					<stop  offset="0" style="stop-color:#B6B6B6"/>
					<stop  offset="1" style="stop-color:#D0D0D0"/>
				</linearGradient>
				<path id="Rectangle" class="st6" d="M195,149.4c4.9,9.4,8.6,31.3,11,65.6H0c2.4-34.3,6.1-56.2,11-65.6c7.3-14.1,38-30.3,92-48.4
					C157,119.2,187.7,135.3,195,149.4z"/>
				<g>
					
						<linearGradient id="SVGID_2_" gradientUnits="userSpaceOnUse" x1="400.9487" y1="479.6314" x2="400.9487" y2="478.6314" gradientTransform="matrix(-101.4707 0 0 -120 40777.082 57555.7734)">
						<stop  offset="0" style="stop-color:#FFFFFF"/>
						<stop  offset="1" style="stop-color:#F4F4F4"/>
					</linearGradient>
					<path class="st7" d="M127,113c-8.5,4.7-16.7,7-24.5,7s-15.7-2.3-23.5-7V91c-3,0.5-5.3,0.5-7.6,0.5c-24,0-33-34.9-28.4-77.5
						c3,0,10,0,20-14c-2.5,19.5,26.5,16.5,37.5,1c-5.5,18.5,9,31,21.5,23.5c24.5-14.7,30,30.1,5,30.5V113z"/>
				</g>
				<defs>
					<filter id="Adobe_OpacityMaskFilter_2_" filterUnits="userSpaceOnUse">
						<feColorMatrix  type="matrix" values="1 0 0 0 0  0 1 0 0 0  0 0 1 0 0  0 0 0 1 0"/>
					</filter>
				</defs>
				<mask maskUnits="userSpaceOnUse" id="mask-8_1_">
					<g class="st8">
						<path id="path-7_1_" class="st2" d="M127,113c-8.5,4.7-16.7,7-24.5,7s-15.7-2.3-23.5-7V91c-3,0.5-5.3,0.5-7.6,0.5
							c-24,0-33-34.9-28.4-77.5c3,0,10,0,20-14c-2.5,19.5,26.5,16.5,37.5,1c-5.5,18.5,9,31,21.5,23.5c24.5-14.7,30,30.1,5,30.5V113z
							"/>
					</g>
				</mask>
				<path id="Path-2" class="st9" d="M79,91c13.3-2.3,25-6.8,35-13.5C105.7,91.8,94,99,79,99V91z"/>
			</g>
		</g>
		<defs>
			<filter id="Adobe_OpacityMaskFilter_3_" filterUnits="userSpaceOnUse">
				<feColorMatrix  type="matrix" values="1 0 0 0 0  0 1 0 0 0  0 0 1 0 0  0 0 0 1 0"/>
			</filter>
		</defs>
		<mask maskUnits="userSpaceOnUse" id="mask-3_3_">
			<g class="st10">
				<circle id="path-2_3_" class="st2" cx="150" cy="150" r="150"/>
			</g>
		</mask>
		<g id="Group-9" class="st11">
			<g transform="translate(112.000000, 190.000000)">
				<path class="st12" d="M38,18c7.2-0.3,24-3.9,24-11.5V0c1.8,0,7.1,4.3,9.8,8C82.5,22.5,70.6,35.5,61,35.5
					c-12.2,0-20.3-10.2-23-15.1c-2.7,4.9-10.8,15.1-23,15.1C5.4,35.5-6.5,22.5,4.2,8c2.7-3.7,8-8,9.8-8v6.5C14,14.1,31.2,17.6,38,18
					L38,18z"/>
			</g>
		</g>
		<defs>
			<filter id="Adobe_OpacityMaskFilter_4_" filterUnits="userSpaceOnUse">
				<feColorMatrix  type="matrix" values="1 0 0 0 0  0 1 0 0 0  0 0 1 0 0  0 0 0 1 0"/>
			</filter>
		</defs>
		<mask maskUnits="userSpaceOnUse" id="mask-3_4_">
			<g class="st13">
				<circle id="path-2_4_" class="st2" cx="150" cy="150" r="150"/>
			</g>
		</mask>
		
			<linearGradient id="SVGID_3_" gradientUnits="userSpaceOnUse" x1="464.875" y1="565.244" x2="464.875" y2="564.244" gradientTransform="matrix(-8 0 0 -48 3869 27363.709)">
			<stop  offset="0" style="stop-color:#130027"/>
			<stop  offset="1" style="stop-color:#130017"/>
		</linearGradient>
		<path class="st14" d="M150,240c-2.2,0-4-1.8-4-4s1.8-4,4-4s4,1.8,4,4S152.2,240,150,240z M150,260c-2.2,0-4-1.8-4-4s1.8-4,4-4
			s4,1.8,4,4S152.2,260,150,260z M150,280c-2.2,0-4-1.8-4-4s1.8-4,4-4s4,1.8,4,4S152.2,280,150,280z"/>
	</g>
</g>
</svg>
