<?xml version="1.0" encoding="utf-8"?>
<!-- Generator: Adobe Illustrator 23.0.0, SVG Export Plug-In . SVG Version: 6.00 Build 0)  -->
<svg version="1.1" id="Layer_1" xmlns="http://www.w3.org/2000/svg" xmlns:xlink="http://www.w3.org/1999/xlink" x="0px" y="0px"
	 viewBox="0 0 34.2 22.7" style="enable-background:new 0 0 34.2 22.7;" xml:space="preserve">
<style type="text/css">
	.st0{fill-rule:evenodd;clip-rule:evenodd;fill:#2B286D;}
</style>
<path class="st0" d="M0,12.5V1.5c0-0.3,0.1-0.6,0.3-0.8c0.2-0.2,0.5-0.3,0.7-0.3H6c0.3,0,0.6,0.1,0.8,0.3C6.9,0.9,7,1.2,7,1.5v1.4
	c0.7-0.8,1.6-1.5,2.6-2.1C10.7,0.3,11.9,0,13.3,0c3.1,0,5.2,1.2,6.4,3.7c0.7-1.1,1.6-2,2.8-2.6c1.2-0.7,2.5-1,3.9-1
	c2.3,0,4.2,0.8,5.6,2.4c1.5,1.6,2.2,3.9,2.2,7v12.2c0,0.3-0.1,0.5-0.3,0.7c-0.2,0.2-0.5,0.3-0.8,0.3H28c-0.3,0-0.6-0.1-0.8-0.3
	c-0.2-0.2-0.3-0.5-0.3-0.8V9.7c0-1.3-0.3-2.3-0.8-2.9c-0.6-0.6-1.3-0.9-2.2-0.9c-0.9,0-1.6,0.3-2.1,0.9c-0.6,0.6-0.8,1.6-0.8,2.9
	v2.9c0,0.5-0.4,0.8-0.8,0.8h-5.7c-0.5,0-0.8-0.4-0.8-0.8V9.7c0-1.3-0.3-2.3-0.8-2.9c-0.6-0.6-1.3-0.9-2.2-0.9
	c-0.9,0-1.6,0.3-2.2,0.9C7.7,7.4,7.4,8.4,7.4,9.6v2.9c0,0.5-0.4,0.8-0.8,0.8H0.8C0.4,13.4,0,13,0,12.5z"/>
<path id="dot-2" class="st0" d="M14.3,15.9H20c0.5,0,0.8,0.4,0.8,0.8v5.1c0,0.5-0.4,0.8-0.8,0.8h-5.7c-0.5,0-0.8-0.4-0.8-0.8v-5.1
	C13.5,16.3,13.9,15.9,14.3,15.9z"/>
<path id="dot-1" class="st0" d="M0.8,15.9h5.8c0.5,0,0.8,0.4,0.8,0.8v5.1c0,0.5-0.4,0.8-0.8,0.8H0.8c-0.5,0-0.8-0.4-0.8-0.8v-5.1
	C0,16.3,0.4,15.9,0.8,15.9z"/>
</svg>
